<?xml version="1.0" encoding="UTF-8" standalone="no"?>
<!-- Created with Inkscape (http://www.inkscape.org/) -->

<svg
   width="59.081924"
   height="59.333584"
   viewBox="0 0 59.081924 59.333584"
   version="1.1"
   id="svg5"
   xmlns="http://www.w3.org/2000/svg"
   xmlns:svg="http://www.w3.org/2000/svg">
  <defs
     id="defs2" />
  <g
     id="layer1"
     transform="translate(-0.24662012,-63.858565)">
    <g
       id="g607"
       transform="matrix(0.25539737,0,0,0.25539737,89.652847,71.451335)">
      <path
         style="fill:#d6efed;stroke-width:1.33333"
         d="m -245.90837,201.43947 -7.17456,-2.55843 -25.18132,-25.14579 -25.18133,-25.1458 8.48825,-0.87037 8.48826,-0.87037 5.20096,-2.7021 5.20097,-2.70209 19.98333,-20.0942 19.98333,-20.0942 h 3.2962 3.2962 l 20.05381,19.84203 20.0538,19.84204 5.75785,2.89825 5.75785,2.89825 6.57548,0.77878 6.57548,0.77876 v 0.86281 0.86281 l -23.66666,23.46503 -23.66667,23.46503 -5.65025,2.83849 -5.65027,2.83851 -7.68307,0.68549 -7.68308,0.68549 z m -83.75134,-79.18335 -16.12262,-16.33333 -2.14241,-5.16283 -2.1424,-5.162837 0.0293,-8.837168 0.0293,-8.837168 2.69736,-6 2.69736,-6 15.58584,-15.666666 15.58585,-15.666667 h 11.06367 11.06367 l 4.9186,2.055123 4.9186,2.055122 20.72866,20.582895 20.72866,20.582894 4.26086,0.852172 4.26086,0.852172 3.71572,-0.927135 3.71572,-0.927134 20.66667,-20.499 20.66666,-20.499 4.95718,-2.064054 4.95717,-2.064055 h 9.82731 9.82729 l 14.71525,15.059228 14.71527,15.059228 3.13603,5.940772 3.13602,5.940771 v 10 10 l -3.13885,5.999997 -3.13887,6 -14.75648,15 -14.75646,15 h -10.3203 -10.32029 l -3.75347,-1.42297 -3.75346,-1.42297 -21.33334,-21.07018 -21.33333,-21.070155 -4.32872,-0.94512 -4.32871,-0.945122 -4.35384,1.436895 -4.35383,1.436896 -19.31745,19.429126 -19.31745,19.42912 -4.94688,2.57224 -4.94689,2.57224 h -11.78809 -11.78809 z m 73.5759,-70.365949 -19.98333,-20.032614 -5.68572,-2.762216 -5.68572,-2.762216 -8.10458,-0.734897 -8.10459,-0.734899 24.45004,-24.47686116 24.45004,-24.47686084 6.00693,-2.84104 6.00693,-2.84104 8.66667,-0.06415 8.66667,-0.06415 6.41634,2.873526 6.41635,2.873526 24.65941,24.34063444 24.65942,24.34063556 -8.63638,1.593947 -8.63637,1.593948 -3.10605,1.594144 -3.10606,1.594145 -20.76076,20.509525 -20.76074,20.509527 h -3.92259 -3.92258 z"
         id="path625" />
      <path
         style="fill:#d4d3d3;stroke-width:1.33333"
         d="m -240.53812,202.46872 -5.80431,-1.12055 -5.52902,-3.29033 -5.52902,-3.29035 -23.31905,-23.42236 -23.31904,-23.42234 h 6.81807 6.81808 l 5.8343,-2.05559 5.8343,-2.05557 21.4247,-21.27776 21.4247,-21.27775 h 3.25922 3.25921 l 19.31608,19.42356 19.31609,19.42356 5.60379,3.33296 5.6038,3.33295 7.51721,0.77585 7.51722,0.77584 -24.45434,24.49904 -24.45434,24.49905 -5.33334,2.49382 -5.33333,2.49382 -5.33333,0.64135 -5.33334,0.64133 z m -89.07853,-80.2126 -15.99641,-16.33333 -2.40651,-6.32895 -2.40651,-6.328955 0.64502,-9.015014 0.64502,-9.015013 2.37468,-4.656036 2.37467,-4.656035 15.42218,-15.666666 15.42218,-15.666667 10.73759,0.02928 10.7376,0.02928 5.33333,2.496584 5.33334,2.496585 18.66666,18.899015 18.66667,18.899014 3.60045,1.908452 3.60046,1.908456 h 5.57642 5.57643 l 22.21037,-21.860178 22.21038,-21.86018 5.27941,-1.465717 5.27941,-1.465719 8.10631,-0.0075 8.10629,-0.0075 16.68444,16.999999 16.68446,17 1.80737,5.333334 1.80737,5.333333 v 7.333333 7.333333 l -1.80737,5.333334 -1.80737,5.333328 -16.68446,17 -16.68444,17 h -9.14912 -9.14913 l -4.95717,-2.06405 -4.95718,-2.06399 -20.66666,-20.499 -20.66667,-20.499003 -3.71572,-0.927135 -3.71572,-0.927134 -4.26086,0.852172 -4.26086,0.852172 -20.72866,20.582888 -20.72866,20.5829 -4.9186,2.05512 -4.9186,2.05512 h -11.15272 -11.15271 z m 72.97693,-70.853656 -20.76075,-20.520321 -4.60642,-2.321802 -4.60642,-2.321802 -8.52051,-0.683945 -8.52051,-0.683945 23.79359,-23.8414585 23.7936,-23.8414595 6.59513,-3.299138 6.59512,-3.299138 8.73821,0.01303 8.73821,0.01303 6.66666,3.180754 6.66667,3.180753 23.98611,24.1395544 23.9861,24.1395516 h -4.07744 -4.07744 l -7.22425,2.145373 -7.22425,2.145372 -21.43462,21.187961 -21.43461,21.18796 h -3.15571 -3.15572 z"
         id="path623" />
      <path
         style="fill:#9dd9d4;stroke-width:1.33333"
         d="m -240.53812,202.46872 -5.80431,-1.12055 -5.52902,-3.29033 -5.52902,-3.29035 -23.31905,-23.42236 -23.31904,-23.42234 h 6.81807 6.81808 l 5.8343,-2.05559 5.8343,-2.05557 21.4247,-21.27776 21.4247,-21.27775 h 3.25922 3.25921 l 19.31608,19.42356 19.31609,19.42356 5.60379,3.33296 5.6038,3.33295 7.51721,0.77585 7.51722,0.77584 -24.45434,24.49904 -24.45434,24.49905 -5.33334,2.49382 -5.33333,2.49382 -5.33333,0.64135 -5.33334,0.64133 z m -89.07853,-80.2126 -15.99641,-16.33333 -2.40651,-6.32895 -2.40651,-6.328955 0.64502,-9.015014 0.64502,-9.015013 2.37468,-4.656036 2.37467,-4.656035 15.42218,-15.666666 15.42218,-15.666667 10.73759,0.02928 10.7376,0.02928 5.33333,2.496584 5.33334,2.496585 18.66666,18.899015 18.66667,18.899014 3.60045,1.908452 3.60046,1.908456 h 5.57642 5.57643 l 22.21037,-21.860178 22.21038,-21.86018 5.27941,-1.465717 5.27941,-1.465719 8.10631,-0.0075 8.10629,-0.0075 16.68444,16.999999 16.68446,17 1.80737,5.333334 1.80737,5.333333 v 7.333333 7.333333 l -1.80737,5.333334 -1.80737,5.333328 -16.68446,17 -16.68444,17 h -9.14912 -9.14913 l -4.95717,-2.06405 -4.95718,-2.06399 -20.66666,-20.499 -20.66667,-20.499003 -3.71572,-0.927135 -3.71572,-0.927134 -4.26086,0.852172 -4.26086,0.852172 -20.72866,20.582888 -20.72866,20.5829 -4.9186,2.05512 -4.9186,2.05512 h -11.15272 -11.15271 z m 72.97693,-70.853656 -20.76075,-20.520321 -4.60642,-2.321802 -4.60642,-2.321802 -8.52051,-0.683945 -8.52051,-0.683945 23.79359,-23.8414585 23.7936,-23.8414595 6.59513,-3.299138 6.59512,-3.299138 8.73821,0.01303 8.73821,0.01303 6.66666,3.180754 6.66667,3.180753 23.98611,24.1395544 23.9861,24.1395516 h -4.07744 -4.07744 l -7.22425,2.145373 -7.22425,2.145372 -21.43462,21.187961 -21.43461,21.18796 h -3.15571 -3.15572 z"
         id="path621" />
      <path
         style="fill:#c0bfbf;stroke-width:1.33333"
         d="m -247.40047,200.26679 -6,-2.11214 -24.33334,-24.0102 -24.33333,-24.0102 v -1.10573 -1.10573 l 7,-0.0293 7,-0.0293 5.91508,-2.68341 5.91509,-2.68343 20.88311,-20.62052 20.88312,-20.62064 h 2.37868 2.37868 l 22.15645,21.73113 22.15646,21.73114 5.48802,1.6022 5.48803,1.6022 h 5.16475 5.16474 l -23.9861,24.0342 -23.98611,24.03418 -6.59512,3.29915 -6.59513,3.29913 -8.07154,-0.10526 -8.07154,-0.10526 z m -80.90399,-76.67734 -14.75648,-15 -3.13886,-6 -3.13887,-5.999997 -0.004,-10 -0.004,-10 2.44068,-4.666666 2.44068,-4.666667 16.17951,-16.333333 16.17951,-16.333333 h 6.95438 6.95438 l 7.06563,1.483848 7.06563,1.483847 21.33333,21.104893 21.33334,21.104891 3.83119,1.440812 3.83119,1.440812 4.83548,-0.890642 4.83547,-0.890644 21.33333,-20.969864 21.33334,-20.969865 2.91234,-1.502377 2.91235,-1.502378 h 11.16141 11.16142 l 14.87777,15.079482 14.87777,15.079481 2.68586,5.920518 2.68585,5.920519 0.0163,8.666666 0.0163,8.666667 -3.17769,6.66667 -3.17769,6.66666 -15.34758,15.18359 -15.34758,15.18357 -9.79503,-0.63525 -9.79507,-0.63524 -4.66666,-2.39163 -4.66667,-2.39161 -20.7982,-20.49004 -20.7982,-20.490053 h -5.62279 -5.62279 l -2.91234,1.490473 -2.91235,1.490475 -20.66666,20.376355 -20.66667,20.37635 -5.33333,1.45907 -5.33334,1.45908 -9.40709,0.008 -9.40709,0.007 z m 73.55398,-71.701934 -19.98333,-20.03527 -6.59512,-3.298063 -6.59513,-3.298062 h -7.39098 -7.39098 l 23.98611,-24.0931065 23.9861,-24.0931075 5.23681,-2.721469 5.23681,-2.72147 7.57865,-0.687208 7.57865,-0.687207 7.18454,2.359481 7.18454,2.359481 25.08611,24.80896884 25.08611,24.80897016 -7.08611,0.790868 -7.08611,0.790868 -4.66666,2.355477 -4.66667,2.355476 -20.76076,20.520321 -20.76075,20.520323 h -2.58925 -2.58925 z"
         id="path619" />
      <path
         style="fill:#aeadad;stroke-width:1.33333"
         d="m -247.40047,200.26679 -6,-2.11214 -24.33334,-24.0102 -24.33333,-24.0102 v -1.10573 -1.10573 l 7,-0.0293 7,-0.0293 5.91508,-2.68341 5.91509,-2.68343 20.88311,-20.62052 20.88312,-20.62064 h 2.37868 2.37868 l 22.15645,21.73113 22.15646,21.73114 5.48802,1.6022 5.48803,1.6022 h 5.16475 5.16474 l -23.9861,24.0342 -23.98611,24.03418 -6.59512,3.29915 -6.59513,3.29913 -8.07154,-0.10526 -8.07154,-0.10526 z m -80.90399,-76.67734 -14.75648,-15 -3.13886,-6 -3.13887,-5.999997 -0.004,-10 -0.004,-10 2.44068,-4.666666 2.44068,-4.666667 16.17951,-16.333333 16.17951,-16.333333 h 6.95438 6.95438 l 7.06563,1.483848 7.06563,1.483847 21.33333,21.104893 21.33334,21.104891 3.83119,1.440812 3.83119,1.440812 4.83548,-0.890642 4.83547,-0.890644 21.33333,-20.969864 21.33334,-20.969865 2.91234,-1.502377 2.91235,-1.502378 h 11.16141 11.16142 l 14.87777,15.079482 14.87777,15.079481 2.68586,5.920518 2.68585,5.920519 0.0163,8.666666 0.0163,8.666667 -3.17769,6.66667 -3.17769,6.66666 -15.34758,15.18359 -15.34758,15.18357 -9.79503,-0.63525 -9.79507,-0.63524 -4.66666,-2.39163 -4.66667,-2.39161 -20.7982,-20.49004 -20.7982,-20.490053 h -5.62279 -5.62279 l -2.91234,1.490473 -2.91235,1.490475 -20.66666,20.376355 -20.66667,20.37635 -5.33333,1.45907 -5.33334,1.45908 -9.40709,0.008 -9.40709,0.007 z m 73.55398,-71.701934 -19.98333,-20.03527 -6.59512,-3.298063 -6.59513,-3.298062 h -7.39098 -7.39098 l 23.98611,-24.0931065 23.9861,-24.0931075 5.23681,-2.721469 5.23681,-2.72147 7.57865,-0.687208 7.57865,-0.687207 7.18454,2.359481 7.18454,2.359481 25.08611,24.80896884 25.08611,24.80897016 -7.08611,0.790868 -7.08611,0.790868 -4.66666,2.355477 -4.66667,2.355476 -20.76076,20.520321 -20.76075,20.520323 h -2.58925 -2.58925 z"
         id="path617" />
      <path
         style="fill:#5fc2ba;stroke-width:1.33333"
         d="m -247.40047,200.26679 -6,-2.11214 -24.33334,-24.0102 -24.33333,-24.0102 v -1.10573 -1.10573 l 7,-0.0293 7,-0.0293 5.91508,-2.68341 5.91509,-2.68343 20.88311,-20.62052 20.88312,-20.62064 h 2.37868 2.37868 l 22.15645,21.73113 22.15646,21.73114 5.48802,1.6022 5.48803,1.6022 h 5.16475 5.16474 l -23.9861,24.0342 -23.98611,24.03418 -6.59512,3.29915 -6.59513,3.29913 -8.07154,-0.10526 -8.07154,-0.10526 z m -80.90399,-76.67734 -14.75648,-15 -3.13886,-6 -3.13887,-5.999997 -0.004,-10 -0.004,-10 2.44068,-4.666666 2.44068,-4.666667 16.17951,-16.333333 16.17951,-16.333333 h 6.95438 6.95438 l 7.06563,1.483848 7.06563,1.483847 21.33333,21.104893 21.33334,21.104891 3.83119,1.440812 3.83119,1.440812 4.83548,-0.890642 4.83547,-0.890644 21.33333,-20.969864 21.33334,-20.969865 2.91234,-1.502377 2.91235,-1.502378 h 11.16141 11.16142 l 14.87777,15.079482 14.87777,15.079481 2.68586,5.920518 2.68585,5.920519 0.0163,8.666666 0.0163,8.666667 -3.17769,6.66667 -3.17769,6.66666 -15.34758,15.18359 -15.34758,15.18357 -9.79503,-0.63525 -9.79507,-0.63524 -4.66666,-2.39163 -4.66667,-2.39161 -20.7982,-20.49004 -20.7982,-20.490053 h -5.62279 -5.62279 l -2.91234,1.490473 -2.91235,1.490475 -20.66666,20.376355 -20.66667,20.37635 -5.33333,1.45907 -5.33334,1.45908 -9.40709,0.008 -9.40709,0.007 z m 73.55398,-71.701934 -19.98333,-20.03527 -6.59512,-3.298063 -6.59513,-3.298062 h -7.39098 -7.39098 l 23.98611,-24.0931065 23.9861,-24.0931075 5.23681,-2.721469 5.23681,-2.72147 7.57865,-0.687208 7.57865,-0.687207 7.18454,2.359481 7.18454,2.359481 25.08611,24.80896884 25.08611,24.80897016 -7.08611,0.790868 -7.08611,0.790868 -4.66666,2.355477 -4.66667,2.355476 -20.76076,20.520321 -20.76075,20.520323 h -2.58925 -2.58925 z"
         id="path615" />
      <path
         style="fill:#9b9a9a;stroke-width:1.33333"
         d="m -243.40911,201.34367 -3.34196,-1.01659 -3.99137,-2.112 -3.99137,-2.11201 -23.13022,-23.23443 -23.13023,-23.23443 7.02068,-0.93132 7.02068,-0.93132 4.73764,-1.97952 4.73764,-1.9795 20.75751,-20.61155 20.75752,-20.61155 h 3.16545 3.16546 l 20.78227,20.4291 20.78227,20.42908 6,2.15232 6,2.15233 5.30268,0.86912 5.30268,0.86912 -24.63601,24.32533 -24.63602,24.32534 -6.57085,2.22413 -6.57085,2.22413 -6.09582,-0.1146 -6.09581,-0.11461 z m -86.25411,-80.42088 -16.12613,-16.33334 -2.1389,-7.241997 -2.13889,-7.242002 v -3.515998 -3.515997 l 2.12529,-7.156614 2.12528,-7.156615 16.09816,-16.41872 16.09816,-16.41872 h 11.84277 11.84277 l 4.26712,2.146344 4.26712,2.146346 20.66666,20.361127 20.66667,20.361128 3.11592,0.952503 3.11592,0.952501 4.88408,-0.905232 4.88408,-0.905233 21.33333,-21.143481 21.33334,-21.143483 3.75346,-1.41126 3.75347,-1.41126 h 10.4006 10.4006 l 14.54039,15.009591 14.54038,15.00959 2.63888,5.323743 2.63888,5.323742 -0.0317,10.666667 -0.0317,10.666667 -2.48774,4.627103 -2.48773,4.62711 -14.69603,15.03956 -14.69609,15.03956 h -11.20547 -11.20545 l -2.91235,-1.49048 -2.91234,-1.49047 -20.66667,-20.3391 -20.66667,-20.339109 -4.68147,-1.502032 -4.68147,-1.502033 -4.58193,1.314081 -4.58194,1.314082 -20.73659,20.590581 -20.7366,20.59057 -3.75346,1.42695 -3.75347,1.42696 h -11.64818 -11.64817 z m 74.35683,-69.520326 -20.76075,-20.520321 -4.66667,-2.379118 -4.66666,-2.379119 -8.42091,-0.767225 -8.42091,-0.767227 25.10036,-24.86956616 25.10036,-24.86956684 7.87656,-2.289781 7.87657,-2.28978 6.35279,0.752394 6.3528,0.752394 5.75786,2.919269 5.75785,2.91927 23.75661,23.4876835 23.7566,23.4876835 -7.08993,0.843928 -7.08995,0.843928 -3.94648,1.562789 -3.94648,1.562788 -21.51464,21.259951 -21.51463,21.259949 h -2.4448 -2.44479 z"
         id="path613" />
      <path
         style="fill:#43b7ae;stroke-width:1.33333"
         d="m -243.40911,201.34367 -3.34196,-1.01659 -3.99137,-2.112 -3.99137,-2.11201 -23.13022,-23.23443 -23.13023,-23.23443 7.02068,-0.93132 7.02068,-0.93132 4.73764,-1.97952 4.73764,-1.9795 20.75751,-20.61155 20.75752,-20.61155 h 3.16545 3.16546 l 20.78227,20.4291 20.78227,20.42908 6,2.15232 6,2.15233 5.30268,0.86912 5.30268,0.86912 -24.63601,24.32533 -24.63602,24.32534 -6.57085,2.22413 -6.57085,2.22413 -6.09582,-0.1146 -6.09581,-0.11461 z m -86.25411,-80.42088 -16.12613,-16.33334 -2.1389,-7.241997 -2.13889,-7.242002 v -3.515998 -3.515997 l 2.12529,-7.156614 2.12528,-7.156615 16.09816,-16.41872 16.09816,-16.41872 h 11.84277 11.84277 l 4.26712,2.146344 4.26712,2.146346 20.66666,20.361127 20.66667,20.361128 3.11592,0.952503 3.11592,0.952501 4.88408,-0.905232 4.88408,-0.905233 21.33333,-21.143481 21.33334,-21.143483 3.75346,-1.41126 3.75347,-1.41126 h 10.4006 10.4006 l 14.54039,15.009591 14.54038,15.00959 2.63888,5.323743 2.63888,5.323742 -0.0317,10.666667 -0.0317,10.666667 -2.48774,4.627103 -2.48773,4.62711 -14.69603,15.03956 -14.69609,15.03956 h -11.20547 -11.20545 l -2.91235,-1.49048 -2.91234,-1.49047 -20.66667,-20.3391 -20.66667,-20.339109 -4.68147,-1.502032 -4.68147,-1.502033 -4.58193,1.314081 -4.58194,1.314082 -20.73659,20.590581 -20.7366,20.59057 -3.75346,1.42695 -3.75347,1.42696 h -11.64818 -11.64817 z m 74.35683,-69.520326 -20.76075,-20.520321 -4.66667,-2.379118 -4.66666,-2.379119 -8.42091,-0.767225 -8.42091,-0.767227 25.10036,-24.86956616 25.10036,-24.86956684 7.87656,-2.289781 7.87657,-2.28978 6.35279,0.752394 6.3528,0.752394 5.75786,2.919269 5.75785,2.91927 23.75661,23.4876835 23.7566,23.4876835 -7.08993,0.843928 -7.08995,0.843928 -3.94648,1.562789 -3.94648,1.562788 -21.51464,21.259951 -21.51463,21.259949 h -2.4448 -2.44479 z"
         id="path611" />
      <path
         style="fill:#36b3a9;stroke-width:1.33333"
         d="m -246.06714,200.37049 -6,-2.1712 -24.38527,-24.11169 -24.38527,-24.11171 8.61255,-1.58954 8.61255,-1.58955 3.10605,-1.59415 3.10606,-1.59414 20.76075,-20.50954 20.76075,-20.50952 h 3.25592 3.25592 l 19.81739,19.8505 19.8174,19.85049 6.16593,2.73505 6.16594,2.73507 5.21788,0.84907 5.21788,0.84908 -23.21788,23.3253 -23.21788,23.3253 -5.29412,2.75056 -5.29412,2.75054 -8.03921,0.46564 -8.03922,0.46566 z m -83.56473,-79.4477 -16.01163,-16.33334 -1.82604,-5.33333 -1.82605,-5.333333 0.0596,-8 0.0596,-8 3.05777,-6 3.05777,-6 14.75648,-15 14.75647,-15 h 10.98696 10.98696 l 3.75346,1.422975 3.75347,1.422973 21.38323,21.130103 21.38324,21.130103 4.94133,0.927 4.94134,0.927 3.67543,-0.917022 3.67543,-0.917023 20.66667,-20.416709 20.66666,-20.41671 4.26712,-2.146346 4.26712,-2.146344 h 9.75372 9.75372 l 15.51174,15.666667 15.51172,15.666666 2.28013,4.549534 2.28015,4.549532 0.70504,7.775249 0.70502,7.775249 -2.37794,6.341889 -2.37795,6.341877 -16.07148,16.33334 -16.07149,16.33333 h -9.64818 -9.64817 l -3.69995,-1.40672 -3.69994,-1.40672 -21.38686,-21.07812 -21.38685,-21.078124 -4.83547,-0.878044 -4.83548,-0.878043 -3.83119,1.441868 -3.83119,1.441868 -20,19.757405 -20,19.75742 -4.26712,2.1636 -4.26712,2.16361 h -11.84277 -11.84277 z m 73.59603,-70.302411 -21.55761,-21.302408 -4.86069,-2.030925 -4.86068,-2.030925 h -7.69521 -7.6952 l 23.31904,-23.4288292 23.31905,-23.4288278 6.34157,-3.264474 6.34158,-3.264475 5.78926,-0.793507 5.78927,-0.793508 7.85637,2.283911 7.85639,2.28391 25.09888,24.86956684 25.09889,24.86956616 -7.0861,0.790868 -7.08611,0.790868 -4.66667,2.385752 -4.66666,2.385751 -20.7982,20.490047 -20.7982,20.490047 h -1.74069 -1.74068 z"
         id="path609" />
    </g>
  </g>
</svg>
