<?xml version="1.0" encoding="UTF-8" standalone="no"?>
<!-- Created with Inkscape (http://www.inkscape.org/) -->

<svg
   width="180.06169"
   height="61.295368"
   viewBox="0 0 180.06169 61.295368"
   version="1.1"
   id="svg5"
   xmlns="http://www.w3.org/2000/svg"
   xmlns:svg="http://www.w3.org/2000/svg">
  <defs
     id="defs2" />
  <g
     id="layer1"
     transform="translate(-0.15494779,-63.599429)">
    <g
       id="g607"
       transform="matrix(0.25539737,0,0,0.25539737,89.652847,71.451335)">
      <path
         style="fill:#d6efed;stroke-width:1.33333"
         d="m -63.99154,206.29277 -2.0756,-2.96333 0.0268,-70.70333 0.0268,-70.703323 1.22768,-8.491988 1.22768,-8.491989 3.426187,-7.002872 3.426186,-7.002873 5.406427,-6.142015 5.406413,-6.142014 10.179214,-5.029791 10.179213,-5.0297906 H 8.5324867 42.599513 l 8.708094,4.2621306 8.708106,4.262129 6.255654,6.167294 6.255653,6.167291 4.369587,8.87855 4.369573,8.87855 v 28.692027 28.692024 l -3.595147,7.67087 -3.59516,7.67085 -6.717306,7.10258 -6.717307,7.10256 -7.173747,3.51264 -7.17376,3.51265 -5.84712,1.348 -5.84712,1.348 -33.3999997,0.0325 -33.4000003,0.0327 -1.6,-1.6 -1.6,-1.6 v -2.32131 -2.32132 l 1.666667,-1.07868 1.666667,-1.07869 36.6666663,-0.66667 36.6666667,-0.66666 6.053533,-2.9835 6.053534,-2.98349 5.749906,-5.68317 5.749894,-5.68318 2.4566,-4.8032 2.4566,-4.80321 1.584626,-9.099613 L 72.955513,87.4505 72.299873,69.219366 71.64422,50.988233 68.257927,43.591567 64.87162,36.194903 59.457553,30.780839 54.043487,25.366777 48.3215,22.311456 42.599527,19.256121 H 8.5995267 -25.400473 l -6.422347,3.280797 -6.422347,3.280798 -5.363133,5.818309 -5.363133,5.818309 -2.881187,6.234227 -2.881187,6.234226 -0.357893,78.000003 -0.357907,78 -2.230266,1.66666 -2.23028,1.66667 h -1.002894 -1.00288 z m -181.91683,-4.8533 -7.17456,-2.55843 -25.18132,-25.14579 -25.18133,-25.1458 8.48825,-0.87037 8.48826,-0.87037 5.20096,-2.7021 5.20097,-2.70209 19.98333,-20.0942 19.98333,-20.0942 h 3.2962 3.2962 l 20.05381,19.84203 20.0538,19.84204 5.75785,2.89825 5.75785,2.89825 6.57548,0.77878 6.57548,0.77876 v 0.86281 0.86281 l -23.66666,23.46503 -23.66667,23.46503 -5.65025,2.83849 -5.65027,2.83851 -7.68307,0.68549 -7.68308,0.68549 z m 368.51607,-59.09406 -0.64335,-1.75596 -0.34908,-56.913611 -0.34908,-56.913614 -3.91612,-4.086385 -3.91612,-4.086386 h -12.2695 -12.269497 l -2.99188,-2.422672 -2.991866,-2.42267 1.557733,-2.910663 1.557747,-2.9106613 h 13.339533 13.33955 l 5.11249,2.6082003 5.11249,2.6082 3.448,4.097716 3.448,4.097714 0.7694,4.294086 0.7694,4.294083 -0.38301,56.666666 -0.38301,56.666667 -3.67426,0.42263 -3.67424,0.42262 z m 36.24779,-0.35714 -2.25596,-2.25596 v -1.6381 -1.63809 l 1.6,-1.6 1.6,-1.6 h 13.10949 13.10949 l 4.95652,-2.07097 4.95654,-2.07098 25.33398,-25.11382 25.33398,-25.113823 5.49569,-1.641698 5.49571,-1.641697 5.17096,1.668839 5.17097,1.668837 25.357,25.072922 25.357,25.07292 3.97633,1.6504 3.97634,1.65042 13.33333,0.76765 13.33333,0.76767 0.45996,3.25862 0.45996,3.25863 -2.38146,1.74137 -2.38147,1.74138 h -6.89651 -6.8965 l -7.0392,-1.33496 -7.03919,-1.33495 -5.64236,-2.81793 -5.64236,-2.81794 -24.48692,-24.51378 -24.48692,-24.513777 h -3.90437 -3.90439 l -25.50752,25.289637 -25.50753,25.28963 -6.6016,2.94064 -6.60162,2.94063 -14.07737,0.59712 -14.07737,0.59712 z m -488.5152,-19.73215 -16.12262,-16.33333 -2.14241,-5.16283 -2.1424,-5.162837 0.0293,-8.837168 0.0293,-8.837168 2.69736,-6 2.69736,-6 15.58584,-15.666666 15.58585,-15.666667 h 11.06367 11.06367 l 4.9186,2.055123 4.9186,2.055122 20.72866,20.582895 20.72866,20.582894 4.26086,0.852172 4.26086,0.852172 3.71572,-0.927135 3.71572,-0.927134 20.66667,-20.499 20.66666,-20.499 4.95718,-2.064054 4.95717,-2.064055 h 9.82731 9.82729 l 14.71525,15.059228 14.71527,15.059228 3.13603,5.940772 3.13602,5.940771 v 10 10 l -3.13885,5.999997 -3.13887,6 -14.75648,15 -14.75646,15 h -10.3203 -10.32029 l -3.75347,-1.42297 -3.75346,-1.42297 -21.33334,-21.07018 -21.33333,-21.070155 -4.32872,-0.94512 -4.32871,-0.945122 -4.35384,1.436895 -4.35383,1.436896 -19.31745,19.429126 -19.31745,19.42912 -4.94688,2.57224 -4.94689,2.57224 h -11.78809 -11.78809 z m 577.59257,-50.200324 -4,-2.523689 -22.66667,-22.898088 -22.66666,-22.898089 -5.31948,-2.763324 -5.31948,-2.763325 -14.9826,-0.661177 -14.98259,-0.661178 -0.80808,-2.546053 -0.80809,-2.546053 1.71434,-2.065663 1.71435,-2.0656626 16.06248,0.5116667 16.06248,0.5116666 6,3.1028173 6,3.102819 24.66667,24.373371 24.66666,24.373372 3.05887,0.916989 3.05887,0.916991 25.6078,-25.181118 25.6078,-25.181119 6.66666,-3.257025 6.66667,-3.2570253 14.66667,-0.00373 14.66666,-0.00373 0.45996,3.2586293 0.45996,3.25863 -2.38146,1.74137 -2.38147,1.741371 h -11.12132 -11.12132 l -4.94299,2.065315 -4.943,2.065314 -24.68084,24.447087 -24.68085,24.447065 -2.91235,1.48762 -2.91234,1.48762 -5.08766,-0.0049 -5.08765,-0.0049 -4,-2.523689 z m -504.01667,-20.165625 -19.98333,-20.032614 -5.68572,-2.762216 -5.68572,-2.762216 -8.10458,-0.734897 -8.10459,-0.734899 24.45004,-24.47686116 24.45004,-24.47686084 6.00693,-2.84104 6.00693,-2.84104 8.66667,-0.06415 8.66667,-0.06415 6.41634,2.873526 6.41635,2.873526 24.65941,24.34063444 24.65942,24.34063556 -8.63638,1.593947 -8.63637,1.593948 -3.10605,1.594144 -3.10606,1.594145 -20.76076,20.509525 -20.76074,20.509527 h -3.92259 -3.92258 z m 374.29428,-59.0178524 -5.61094,-5.7171346 v -2.767076 -2.767075 l 6.60954,-6.182456 6.60955,-6.182455 h 0.78091 0.7809 l 6.60955,6.182455 6.60955,6.182456 v 2.873267 2.873267 l -5.71714,5.6109436 -5.71713,5.6109439 h -2.67192 -2.67192 z"
         id="path625" />
      <path
         style="fill:#d4d3d3;stroke-width:1.33333"
         d="m -64.149887,206.18795 -0.66572,-1.73483 0.37424,-79.26517 0.374227,-79.265163 3.773187,-7.687153 3.773186,-7.687153 6.526467,-6.700468 6.526453,-6.700469 9.033694,-4.279044 9.03368,-4.2790456 29.5405997,-0.4427227 29.5406003,-0.442724 8.212826,2.1040267 8.212814,2.1040276 5.874493,3.44268 5.874493,3.44268 6.611294,7.233804 6.61128,7.233804 3.039826,7.662212 3.039814,7.662212 0.493973,23.552586 0.49396,23.552585 -2.15276,8.403065 -2.152773,8.40306 -4.047387,6.3073 -4.047387,6.30731 -5.191626,4.69033 -5.191627,4.69032 -6.434813,3.26078 -6.434827,3.26076 -7.857933,1.45262 -7.857934,1.45262 H -0.05718 -30.890793 l -2.41824,-1.76827 -2.41824,-1.76825 0.879506,-2.7711 0.879507,-2.77109 35.6172267,-0.53373 35.6172263,-0.53372 7.074,-2.82694 7.073987,-2.82694 5.859627,-4.80152 5.859626,-4.80152 4.399707,-8.9371 4.39972,-8.93709 V 75.950823 51.256121 L 68.464713,43.861946 64.996553,36.467771 60.683967,31.556005 56.37138,26.644238 47.51542,22.283513 38.659447,17.922788 H 9.2961533 -20.06714 l -7.241813,2.520804 -7.2418,2.520805 -7.59232,7.479194 -7.592307,7.479196 -2.832547,7.716684 -2.832546,7.716683 v 75.174276 75.17426 l -0.80932,2.10904 -0.80932,2.10906 h -3.23252 -3.232534 z m -176.388233,-3.71923 -5.80431,-1.12055 -5.52902,-3.29033 -5.52902,-3.29035 -23.31905,-23.42236 -23.31904,-23.42234 h 6.81807 6.81808 l 5.8343,-2.05559 5.8343,-2.05557 21.4247,-21.27776 21.4247,-21.27775 h 3.25922 3.25921 l 19.31608,19.42356 19.31609,19.42356 5.60379,3.33296 5.6038,3.33295 7.51721,0.77585 7.51722,0.77584 -24.45434,24.49904 -24.45434,24.49905 -5.33334,2.49382 -5.33333,2.49382 -5.33333,0.64135 -5.33334,0.64133 z m 363.30798,-60.58285 -0.837,-2.18118 V 84.543141 29.381595 l -1.53884,-3.377373 -1.53883,-3.377373 -3.46117,-2.329277 -3.46116,-2.329278 -13.333333,-0.68942 -13.333334,-0.68942 v -4 -3.9999996 l 12,-0.416144 11.999997,-0.416144 4.81947,1.4155773 4.81947,1.4155773 3.55106,2.793268 3.55107,2.793268 2.64349,5.181689 2.64351,5.181689 -0.34736,58.358942 -0.34737,58.358943 -3.49634,0.40547 -3.49634,0.40545 z m 34.68741,-1.27926 -0.85774,-2.23525 v -0.46239 -0.46237 l 2.09524,-2.09524 2.09524,-2.09524 12.90476,-0.0293 12.90476,-0.0293 5.95558,-2.70154 5.95559,-2.70156 25.48688,-25.26916 25.48688,-25.26907 h 7.26085 7.26087 l 3.29667,2.195739 3.29668,2.19574 24.66666,24.342641 24.66667,24.34264 5.33333,1.45419 5.33334,1.45418 10,0.0279 10,0.0279 1.78332,1.13036 1.78332,1.13037 -0.44999,3.18255 -0.44999,3.18252 -13.77565,0.38118 -13.77565,0.38118 -7.55659,-3.45952 -7.5566,-3.45952 -24.7124,-24.58834 -24.7124,-24.588317 h -3.84623 -3.84621 l -25.44247,25.165097 -25.44246,25.16509 -4.66667,2.46705 -4.66667,2.46707 -17.47558,0.49405 -17.47558,0.49407 z m -487.07392,-18.35049 -15.99641,-16.33333 -2.40651,-6.32895 -2.40651,-6.328955 0.64502,-9.015014 0.64502,-9.015013 2.37468,-4.656036 2.37467,-4.656035 15.42218,-15.666666 15.42218,-15.666667 10.73759,0.02928 10.7376,0.02928 5.33333,2.496584 5.33334,2.496585 18.66666,18.899015 18.66667,18.899014 3.60045,1.908452 3.60046,1.908456 h 5.57642 5.57643 l 22.21037,-21.860178 22.21038,-21.86018 5.27941,-1.465717 5.27941,-1.465719 8.10631,-0.0075 8.10629,-0.0075 16.68444,16.999999 16.68446,17 1.80737,5.333334 1.80737,5.333333 v 7.333333 7.333333 l -1.80737,5.333334 -1.80737,5.333328 -16.68446,17 -16.68444,17 h -9.14912 -9.14913 l -4.95717,-2.06405 -4.95718,-2.06399 -20.66666,-20.499 -20.66667,-20.499003 -3.71572,-0.927135 -3.71572,-0.927134 -4.26086,0.852172 -4.26086,0.852172 -20.72866,20.582888 -20.72866,20.5829 -4.9186,2.05512 -4.9186,2.05512 h -11.15272 -11.15271 z m 578.88284,-49.737389 -4,-2.054295 -24,-23.805971 -24,-23.805971 -4.66666,-2.386937 -4.66667,-2.386937 -14.52744,-0.744583 -14.52743,-0.744583 -1.39525,-2.221569 -1.39524,-2.221571 1.86247,-2.2441356 1.86246,-2.2441373 15.39355,0.4832466 15.39355,0.4832467 6.66666,3.2204466 6.66667,3.220447 25.62752,25.249714 25.62752,25.249716 3.70581,-0.896674 3.70582,-0.896674 24.66666,-24.465177 24.66667,-24.465177 5.97628,-2.97757 5.97628,-2.9775689 11.55923,-0.6590774 11.55922,-0.6590773 3.54858,0.8906333 3.54856,0.8906347 -0.4174,3.6201616 -0.41742,3.620162 -12.66666,0.790298 -12.66667,0.790297 -5.31915,2.275017 -5.31916,2.275018 -24.68084,24.447065 -24.68085,24.447065 -2.91235,1.48762 -2.91234,1.48762 -4.42099,-0.0083 -4.42099,-0.0083 -4,-2.054294 z m -505.90591,-21.116267 -20.76075,-20.520321 -4.60642,-2.321802 -4.60642,-2.321802 -8.52051,-0.683945 -8.52051,-0.683945 23.79359,-23.8414585 23.7936,-23.8414595 6.59513,-3.299138 6.59512,-3.299138 8.73821,0.01303 8.73821,0.01303 6.66666,3.180754 6.66667,3.180753 23.98611,24.1395544 23.9861,24.1395516 h -4.07744 -4.07744 l -7.22425,2.145373 -7.22425,2.145372 -21.43462,21.187961 -21.43461,21.18796 h -3.15571 -3.15572 z m 375.89225,-57.6506427 -5.35468,-4.8376333 -0.8208,-3.270339 -0.82082,-3.27034 5.7826,-5.892028 5.78259,-5.892026 h 2.77811 2.7781 l 5.78259,5.892026 5.7826,5.892028 -0.82081,3.27034 -0.8208,3.270339 -5.35468,4.8376333 -5.35468,4.8376332 h -1.99232 -1.99232 z"
         id="path623" />
      <path
         style="fill:#9dd9d4;stroke-width:1.33333"
         d="m -64.150193,206.18713 -0.66604,-1.73565 0.374546,-78.59768 0.374547,-78.597679 3.59452,-7.670192 3.594507,-7.670191 6.714293,-7.099373 6.714293,-7.099375 7.098334,-3.59143 7.098346,-3.591432 7.926187,-1.2979469 7.926187,-1.297948 21.333333,0.0024 21.333333,0.0024 8.621827,1.3988386 8.621827,1.3988383 7.714306,4.111679 7.714294,4.111679 5.24712,5.69246 5.247133,5.692459 3.297467,6.507228 3.297453,6.507228 1.452627,7.857936 1.452613,7.857833 v 16.843575 16.843574 l -1.452613,7.857929 -1.452627,7.85794 -3.324813,6.5612 -3.3248,6.5612 -6.239587,6.23958 -6.2396,6.23959 -7.982973,3.91949 -7.982987,3.9195 -38.82932,0.40638 -38.829307,0.40639 -0.795506,-2.07305 -0.795507,-2.07306 0.7312,-1.90548 0.7312,-1.90548 36.22696,-0.42785 36.226947,-0.42785 7.493346,-3.51356 7.493347,-3.51355 5.466947,-4.93905 5.466946,-4.93906 3.706374,-7.5474 3.706373,-7.54738 v -26.000003 -26 l -2.881187,-6.234226 -2.881186,-6.234227 -5.5968,-6.071816 -5.596814,-6.071816 -7.522,-3.693957 -7.522013,-3.693957 H 8.5995267 -22.733807 l -7.530613,3.530616 -7.530613,3.530614 -5.23884,5.238836 -5.23884,5.238837 -3.230547,6.563882 -3.230547,6.563881 -0.364826,77.901336 -0.36484,77.90133 -1.465094,1.76533 -1.465093,1.76534 h -2.545253 -2.545254 z m -176.387927,-3.71841 -5.80431,-1.12055 -5.52902,-3.29033 -5.52902,-3.29035 -23.31905,-23.42236 -23.31904,-23.42234 h 6.81807 6.81808 l 5.8343,-2.05559 5.8343,-2.05557 21.4247,-21.27776 21.4247,-21.27775 h 3.25922 3.25921 l 19.31608,19.42356 19.31609,19.42356 5.60379,3.33296 5.6038,3.33295 7.51721,0.77585 7.51722,0.77584 -24.45434,24.49904 -24.45434,24.49905 -5.33334,2.49382 -5.33333,2.49382 -5.33333,0.64135 -5.33334,0.64133 z m 364.07098,-60.14593 -1.6,-1.6 V 85.076253 29.429719 l -1.30009,-3.41952 -1.30011,-3.419518 -4.36656,-2.662296 -4.36657,-2.662296 -12.375177,-0.0049 -12.375186,-0.0049 -0.837014,-2.18123 -0.837013,-2.181231 1.374973,-2.152103 1.374987,-2.1521023 14.01837,0.055453 14.01839,0.055453 5.32397,3.5232373 5.32396,3.523236 2.8282,5.842278 2.8282,5.842277 v 56.6457 56.645703 l -1.6,1.6 -1.6,1.6 h -1.46666 -1.46667 l -1.6,-1.6 z m 35.4,-0.49991 -1,-1.0112 v -2.92229 -2.9223 l 14.33333,-0.68809 14.33334,-0.68809 5.2689,-2.21172 5.26891,-2.21171 25.39776,-25.18025 25.39776,-25.180253 3.7472,-0.940185 3.7472,-0.940185 5.43908,0.729533 5.43908,0.729533 24.81372,24.611437 24.81372,24.61142 4.66667,2.44587 4.66666,2.44585 13.1947,0.71127 13.19469,0.71127 1.35083,2.1521 1.35084,2.1521 -0.83702,2.18124 -0.83701,2.18122 h -12.471 -12.47099 l -6.57085,-2.21272 -6.57085,-2.21273 -26.13474,-25.78727 -26.13474,-25.787277 -2.53192,-0.157977 -2.53194,-0.157976 -2,0.261636 -2,0.261637 -24.66666,24.411507 -24.66667,24.41149 -6,3.10283 -6,3.10281 -16,0.50434 -16,0.50434 z m -488.54951,-19.56676 -15.99641,-16.33333 -2.40651,-6.32895 -2.40651,-6.328955 0.64502,-9.015014 0.64502,-9.015013 2.37468,-4.656036 2.37467,-4.656035 15.42218,-15.666666 15.42218,-15.666667 10.73759,0.02928 10.7376,0.02928 5.33333,2.496584 5.33334,2.496585 18.66666,18.899015 18.66667,18.899014 3.60045,1.908452 3.60046,1.908456 h 5.57642 5.57643 l 22.21037,-21.860178 22.21038,-21.86018 5.27941,-1.465717 5.27941,-1.465719 8.10631,-0.0075 8.10629,-0.0075 16.68444,16.999999 16.68446,17 1.80737,5.333334 1.80737,5.333333 v 7.333333 7.333333 l -1.80737,5.333334 -1.80737,5.333328 -16.68446,17 -16.68444,17 h -9.14912 -9.14913 l -4.95717,-2.06405 -4.95718,-2.06399 -20.66666,-20.499 -20.66667,-20.499003 -3.71572,-0.927135 -3.71572,-0.927134 -4.26086,0.852172 -4.26086,0.852172 -20.72866,20.582888 -20.72866,20.5829 -4.9186,2.05512 -4.9186,2.05512 h -11.15272 -11.15271 z m 580.88284,-49.162268 -3.33333,-1.32657 -24.66667,-24.407068 -24.66666,-24.407068 -4.66667,-2.443681 -4.66667,-2.443681 -15.33333,-0.738164 -15.33333,-0.738166 -0.41742,-3.620162 -0.4174,-3.6201616 3.53984,-0.888444 3.53984,-0.888444 12.22786,0.6395947 12.22784,0.639596 6.64972,2.9305679 6.64972,2.930568 25.41118,25.271776 25.4112,25.271775 h 3.81302 3.813 l 25.50752,-25.289635 25.50753,-25.289636 6.43212,-2.845236 6.43213,-2.8452373 12.85948,-0.7085973 12.8595,-0.708596 1.75342,2.1127506 1.75343,2.112749 -0.45739,2.397387 -0.45737,2.397385 -13.31939,0.813032 -13.31938,0.813032 -3.93514,1.589372 -3.93513,1.589372 -26.06487,25.720693 -26.06486,25.720692 -4.5,0.876903 -4.5,0.876904 -1.5,-0.08452 -1.5,-0.08452 z m -507.90591,-21.691388 -20.76075,-20.520321 -4.60642,-2.321802 -4.60642,-2.321802 -8.52051,-0.683945 -8.52051,-0.683945 23.79359,-23.8414585 23.7936,-23.8414595 6.59513,-3.299138 6.59512,-3.299138 8.73821,0.01303 8.73821,0.01303 6.66666,3.180754 6.66667,3.180753 23.98611,24.1395544 23.9861,24.1395516 h -4.07744 -4.07744 l -7.22425,2.145373 -7.22425,2.145372 -21.43462,21.187961 -21.43461,21.18796 h -3.15571 -3.15572 z m 375.89225,-57.6506427 -5.35468,-4.8376333 -0.8208,-3.270339 -0.82082,-3.27034 5.7826,-5.892028 5.78259,-5.892026 h 2.77811 2.7781 l 5.78259,5.892026 5.7826,5.892028 -0.82081,3.27034 -0.8208,3.270339 -5.35468,4.8376333 -5.35468,4.8376332 h -1.99232 -1.99232 z"
         id="path621" />
      <path
         style="fill:#c0bfbf;stroke-width:1.33333"
         d="m -64.150193,206.18713 -0.66604,-1.73565 0.374546,-78.59768 0.374547,-78.597679 3.59452,-7.670192 3.594507,-7.670191 6.714293,-7.099373 6.714293,-7.099375 7.098334,-3.59143 7.098346,-3.591432 7.926187,-1.2979469 7.926187,-1.297948 21.333333,0.0024 21.333333,0.0024 8.621827,1.3988386 8.621827,1.3988383 7.714306,4.111679 7.714294,4.111679 5.24712,5.69246 5.247133,5.692459 3.297467,6.507228 3.297453,6.507228 1.452627,7.857936 1.452613,7.857833 v 16.843575 16.843574 l -1.452613,7.857929 -1.452627,7.85794 -3.324813,6.5612 -3.3248,6.5612 -6.239587,6.23958 -6.2396,6.23959 -7.982973,3.91949 -7.982987,3.9195 -38.82932,0.40638 -38.829307,0.40639 -0.795506,-2.07305 -0.795507,-2.07306 0.7312,-1.90548 0.7312,-1.90548 36.22696,-0.42785 36.226947,-0.42785 7.493346,-3.51356 7.493347,-3.51355 5.466947,-4.93905 5.466946,-4.93906 3.706374,-7.5474 3.706373,-7.54738 v -26.000003 -26 l -2.881187,-6.234226 -2.881186,-6.234227 -5.5968,-6.071816 -5.596814,-6.071816 -7.522,-3.693957 -7.522013,-3.693957 H 8.5995267 -22.733807 l -7.530613,3.530616 -7.530613,3.530614 -5.23884,5.238836 -5.23884,5.238837 -3.230547,6.563882 -3.230547,6.563881 -0.364826,77.901336 -0.36484,77.90133 -1.465094,1.76533 -1.465093,1.76534 h -2.545253 -2.545254 z m -183.250277,-5.92034 -6,-2.11214 -24.33334,-24.0102 -24.33333,-24.0102 v -1.10573 -1.10573 l 7,-0.0293 7,-0.0293 5.91508,-2.68341 5.91509,-2.68343 20.88311,-20.62052 20.88312,-20.62064 h 2.37868 2.37868 l 22.15645,21.73113 22.15646,21.73114 5.48802,1.6022 5.48803,1.6022 h 5.16475 5.16474 l -23.9861,24.0342 -23.98611,24.03418 -6.59512,3.29915 -6.59513,3.29913 -8.07154,-0.10526 -8.07154,-0.10526 z m 370.93333,-57.944 -1.6,-1.6 V 85.076253 29.429719 l -1.30009,-3.41952 -1.30011,-3.419518 -4.36656,-2.662296 -4.36657,-2.662296 -12.375177,-0.0049 -12.375186,-0.0049 -0.837014,-2.18123 -0.837013,-2.181231 1.374973,-2.152103 1.374987,-2.1521023 14.01837,0.055453 14.01839,0.055453 5.32397,3.5232373 5.32396,3.523236 2.8282,5.842278 2.8282,5.842277 v 56.6457 56.645703 l -1.6,1.6 -1.6,1.6 h -1.46666 -1.46667 l -1.6,-1.6 z m 35.4,-0.49991 -1,-1.0112 v -2.92229 -2.9223 l 14.33333,-0.68809 14.33334,-0.68809 5.2689,-2.21172 5.26891,-2.21171 25.39776,-25.18025 25.39776,-25.180253 3.7472,-0.940185 3.7472,-0.940185 5.43908,0.729533 5.43908,0.729533 24.81372,24.611437 24.81372,24.61142 4.66667,2.44587 4.66666,2.44585 13.1947,0.71127 13.19469,0.71127 1.35083,2.1521 1.35084,2.1521 -0.83702,2.18124 -0.83701,2.18122 h -12.471 -12.47099 l -6.57085,-2.21272 -6.57085,-2.21273 -26.13474,-25.78727 -26.13474,-25.787277 -2.53192,-0.157977 -2.53194,-0.157976 -2,0.261636 -2,0.261637 -24.66666,24.411507 -24.66667,24.41149 -6,3.10283 -6,3.10281 -16,0.50434 -16,0.50434 z m -487.23732,-18.23343 -14.75648,-15 -3.13886,-6 -3.13887,-5.999997 -0.004,-10 -0.004,-10 2.44068,-4.666666 2.44068,-4.666667 16.17951,-16.333333 16.17951,-16.333333 h 6.95438 6.95438 l 7.06563,1.483848 7.06563,1.483847 21.33333,21.104893 21.33334,21.104891 3.83119,1.440812 3.83119,1.440812 4.83548,-0.890642 4.83547,-0.890644 21.33333,-20.969864 21.33334,-20.969865 2.91234,-1.502377 2.91235,-1.502378 h 11.16141 11.16142 l 14.87777,15.079482 14.87777,15.079481 2.68586,5.920518 2.68585,5.920519 0.0163,8.666666 0.0163,8.666667 -3.17769,6.66667 -3.17769,6.66666 -15.34758,15.18359 -15.34758,15.18357 -9.79503,-0.63525 -9.79507,-0.63524 -4.66666,-2.39163 -4.66667,-2.39161 -20.7982,-20.49004 -20.7982,-20.490053 h -5.62279 -5.62279 l -2.91234,1.490473 -2.91235,1.490475 -20.66666,20.376355 -20.66667,20.37635 -5.33333,1.45907 -5.33334,1.45908 -9.40709,0.008 -9.40709,0.007 z m 579.57065,-50.495598 -3.33333,-1.32657 -24.66667,-24.407068 -24.66666,-24.407068 -4.66667,-2.443681 -4.66667,-2.443681 -15.33333,-0.738164 -15.33333,-0.738166 -0.41742,-3.620162 -0.4174,-3.6201616 3.53984,-0.888444 3.53984,-0.888444 12.22786,0.6395947 12.22784,0.639596 6.64972,2.9305679 6.64972,2.930568 25.41118,25.271776 25.4112,25.271775 h 3.81302 3.813 l 25.50752,-25.289635 25.50753,-25.289636 6.43212,-2.845236 6.43213,-2.8452373 12.85948,-0.7085973 12.8595,-0.708596 1.75342,2.1127506 1.75343,2.112749 -0.45739,2.397387 -0.45737,2.397385 -13.31939,0.813032 -13.31938,0.813032 -3.93514,1.589372 -3.93513,1.589372 -26.06487,25.720693 -26.06486,25.720692 -4.5,0.876903 -4.5,0.876904 -1.5,-0.08452 -1.5,-0.08452 z m -506.01667,-21.206336 -19.98333,-20.03527 -6.59512,-3.298063 -6.59513,-3.298062 h -7.39098 -7.39098 l 23.98611,-24.0931065 23.9861,-24.0931075 5.23681,-2.721469 5.23681,-2.72147 7.57865,-0.687208 7.57865,-0.687207 7.18454,2.359481 7.18454,2.359481 25.08611,24.80896884 25.08611,24.80897016 -7.08611,0.790868 -7.08611,0.790868 -4.66666,2.355477 -4.66667,2.355476 -20.76076,20.520321 -20.76075,20.520323 h -2.58925 -2.58925 z m 374.01225,-59.4312334 -6.66224,-6.2317396 v -1.992983 -1.992983 l 5.82456,-5.824561 5.82456,-5.824561 h 2.1716 2.1716 l 5.28024,4.770381 5.28024,4.770381 0.85778,2.702648 0.85779,2.702647 -5.13419,5.299188 -5.13418,5.2991866 -2.33776,1.2770679 -2.33778,1.277068 z"
         id="path619" />
      <path
         style="fill:#aeadad;stroke-width:1.33333"
         d="m -64.150513,206.18631 -0.66636,-1.7365 0.374866,-77.93017 0.374867,-77.930186 3.094133,-7.662212 3.094134,-7.662212 6.676933,-7.305637 6.676947,-7.305637 8.280933,-4.076687 8.28092,-4.076688 9.276933,-1.4442853 9.2769337,-1.444284 24.0044003,0.6578134 24.0044,0.6578133 6.358293,2.0413616 6.35828,2.041361 6.80176,4.364673 6.801747,4.364674 5.076453,6.422193 5.076453,6.422193 3.05536,7.669447 3.05536,7.669446 0.04147,24.666667 0.04147,24.666666 -2.289814,7.38884 -2.289813,7.38883 -5.34528,7.46461 -5.345293,7.4646 -6.22452,4.12296 -6.224534,4.12295 -7.247146,2.7115 -7.247147,2.71151 -36.22656,-0.35456 -36.226533,-0.35457 v -3.33334 -3.33333 l 36.6666663,-0.66667 36.6666667,-0.66666 7.522013,-3.69396 7.522,-3.69396 5.596814,-6.07182 5.5968,-6.07181 2.881186,-6.23423 2.881187,-6.23422 V 75.25612 48.589454 l -3.5336,-6.693072 -3.533587,-6.693071 -6.50396,-6.083693 -6.50396,-6.083692 -6.62912,-2.556569 -6.629106,-2.556569 H 7.2661933 -24.06714 l -6.10076,3.006354 -6.10076,3.006355 -5.474787,4.68621 -5.474773,4.686211 -4.091133,8.187064 -4.09112,8.187065 v 76.541353 76.54136 l -1.38024,2.57901 -1.380254,2.57902 h -2.6616 -2.6616 z m -183.249957,-5.91952 -6,-2.11214 -24.33334,-24.0102 -24.33333,-24.0102 v -1.10573 -1.10573 l 7,-0.0293 7,-0.0293 5.91508,-2.68341 5.91509,-2.68343 20.88311,-20.62052 20.88312,-20.62064 h 2.37868 2.37868 l 22.15645,21.73113 22.15646,21.73114 5.48802,1.6022 5.48803,1.6022 h 5.16475 5.16474 l -23.9861,24.0342 -23.98611,24.03418 -6.59512,3.29915 -6.59513,3.29913 -8.07154,-0.10526 -8.07154,-0.10526 z m 370.71357,-58.92302 -1.38024,-2.57901 V 82.698144 26.631525 L 118.04318,22.277157 114.1535,17.922788 99.723473,17.256121 85.293433,16.589454 84.8015,14.010917 84.309553,11.43238 86.70938,9.6775837 l 2.399827,-1.754796 9.411826,0.00747 9.411827,0.00747 5.09437,1.4146266 5.09438,1.4146267 5.01332,4.529232 5.01332,4.529234 1.55897,5.203397 1.55897,5.203397 v 55.245307 55.245312 l -1.6,1.6 -1.6,1.6 h -1.68642 -1.68642 l -1.38025,-2.57902 z m 35.10193,-0.75432 -0.76748,-2 0.69291,-1.80566 0.69289,-1.80566 14.49522,-0.68705 14.49522,-0.68704 5.28787,-2.74736 5.28787,-2.74737 23.33333,-23.56255 23.33333,-23.562551 4.29051,-1.864045 4.29051,-1.864044 h 4.13048 4.13048 l 2.91234,1.48762 2.91235,1.48762 24.68085,24.44707 24.68084,24.44706 4.943,2.06531 4.94299,2.06532 h 11.12132 11.12132 l 2.58817,1.92191 2.58818,1.9219 -1.49158,2.41143 -1.49157,2.41143 -13.84176,-0.0483 -13.84176,-0.0483 -6.66667,-3.52269 -6.66666,-3.52268 -22.66667,-22.85263 -22.66667,-22.85263 -3.60045,-1.909696 -3.60045,-1.909804 h -1.57232 -1.57231 l -26.16689,25.78185 -26.16688,25.78186 -7.71036,2.88481 -7.71038,2.88481 H 173.17433 159.1825 Z m -486.71949,-17 -14.75648,-15 -3.13886,-6 -3.13887,-5.999997 -0.004,-10 -0.004,-10 2.44068,-4.666666 2.44068,-4.666667 16.17951,-16.333333 16.17951,-16.333333 h 6.95438 6.95438 l 7.06563,1.483848 7.06563,1.483847 21.33333,21.104893 21.33334,21.104891 3.83119,1.440812 3.83119,1.440812 4.83548,-0.890642 4.83547,-0.890644 21.33333,-20.969864 21.33334,-20.969865 2.91234,-1.502377 2.91235,-1.502378 h 11.16141 11.16142 l 14.87777,15.079482 14.87777,15.079481 2.68586,5.920518 2.68585,5.920519 0.0163,8.666666 0.0163,8.666667 -3.17769,6.66667 -3.17769,6.66666 -15.34758,15.18359 -15.34758,15.18357 -9.79503,-0.63525 -9.79507,-0.63524 -4.66666,-2.39163 -4.66667,-2.39161 -20.7982,-20.49004 -20.7982,-20.490053 h -5.62279 -5.62279 l -2.91234,1.490473 -2.91235,1.490475 -20.66666,20.376355 -20.66667,20.37635 -5.33333,1.45907 -5.33334,1.45908 -9.40709,0.008 -9.40709,0.007 z m 580.33435,-50.39582 -3.90298,-1.166618 -24.76369,-24.561653 -24.76369,-24.561653 -4.66667,-2.462152 -4.66667,-2.462152 -15.33333,-0.694974 -15.33333,-0.694974 -0.41742,-3.620162 -0.4174,-3.6201616 3.53984,-0.888444 3.53984,-0.888444 12.22786,0.6395947 12.22784,0.639596 6.58466,2.9127079 6.58466,2.912708 25.50753,25.289636 25.50752,25.289635 h 3.75293 3.75295 l 25.47125,-25.076762 25.47127,-25.076761 4.90156,-2.272416 4.90156,-2.272416 6.94709,-1.3174893 6.9471,-1.317488 h 6.8965 6.89651 l 2.41824,1.7682613 2.41824,1.76826 -0.91992,2.898407 -0.91992,2.898405 -10.91015,0.0075 -10.91014,0.0075 -5.33334,1.464244 -5.33333,1.464246 -25.39776,25.150666 -25.39776,25.150604 -4.89275,2.04432 -4.89274,2.04432 -1.7095,-0.114604 -1.70949,-0.114603 z m -506.78037,-21.306114 -19.98333,-20.03527 -6.59512,-3.298063 -6.59513,-3.298062 h -7.39098 -7.39098 l 23.98611,-24.0931065 23.9861,-24.0931075 5.23681,-2.721469 5.23681,-2.72147 7.57865,-0.687208 7.57865,-0.687207 7.18454,2.359481 7.18454,2.359481 25.08611,24.80896884 25.08611,24.80897016 -7.08611,0.790868 -7.08611,0.790868 -4.66666,2.355477 -4.66667,2.355476 -20.76076,20.520321 -20.76075,20.520323 h -2.58925 -2.58925 z m 374.01225,-59.4312334 -6.66224,-6.2317396 v -1.992983 -1.992983 l 5.82456,-5.824561 5.82456,-5.824561 h 2.1716 2.1716 l 5.28024,4.770381 5.28024,4.770381 0.85778,2.702648 0.85779,2.702647 -5.13419,5.299188 -5.13418,5.2991866 -2.33776,1.2770679 -2.33778,1.277068 z"
         id="path617" />
      <path
         style="fill:#5fc2ba;stroke-width:1.33333"
         d="m -63.250167,206.10389 -1.604466,-1.93326 0.393746,-77.86227 0.393747,-77.862262 5.029787,-10.174563 5.0298,-10.174562 6.303533,-5.606996 6.303547,-5.606997 7.333333,-3.480096 7.333333,-3.4800963 H 7.93286 42.599527 l 8.666666,4.1260653 8.666667,4.126067 5.787813,5.818606 5.787814,5.818607 4.212186,8.055328 4.212187,8.055326 v 29.333333 29.33333 l -3.573413,7.6241 -3.5734,7.62408 -6.286587,6.72088 -6.2866,6.72086 -8.77416,4.32171 -8.774173,4.32171 H 4.6320333 -33.400473 v -3.33334 -3.33333 l 36.6666663,-0.66667 36.6666667,-0.66666 7.333333,-3.48374 7.333334,-3.48373 5.132813,-5.18293 5.132813,-5.18294 3.533854,-6.66666 3.533853,-6.66667 V 75.922787 48.589454 L 68.669393,41.957561 65.405913,35.325667 59.967953,29.887699 54.52998,24.449732 47.898087,21.18626 41.266193,17.922788 10.546447,17.503312 -20.1733,17.083837 l -7.386053,2.763475 -7.38604,2.763474 -5.667174,4.850888 -5.667173,4.850888 -3.00396,4.805112 -3.00396,4.805113 -1.870467,4.666667 -1.87048,4.666666 -0.685933,77.98239 -0.685933,77.98238 -2.122614,0.40814 -2.122613,0.40813 z m -184.150303,-5.8371 -6,-2.11214 -24.33334,-24.0102 -24.33333,-24.0102 v -1.10573 -1.10573 l 7,-0.0293 7,-0.0293 5.91508,-2.68341 5.91509,-2.68343 20.88311,-20.62052 20.88312,-20.62064 h 2.37868 2.37868 l 22.15645,21.73113 22.15646,21.73114 5.48802,1.6022 5.48803,1.6022 h 5.16475 5.16474 l -23.9861,24.0342 -23.98611,24.03418 -6.59512,3.29915 -6.59513,3.29913 -8.07154,-0.10526 -8.07154,-0.10526 z m 372.33333,-57.30195 -1.66667,-0.59761 V 87.102184 31.837138 l -1.83842,-4.399975 -1.83843,-4.399975 -3.67472,-2.890534 -3.67472,-2.890533 h -12.323587 -12.3236 l -1.64576,-1.98302 -1.64576,-1.98302 0.773987,-2.01698 0.773987,-2.0169799 h 13.418 13.418013 l 4.35276,1.8187009 4.35276,1.8187 3.55317,4.222706 3.55318,4.222705 1.37713,4.958594 1.37715,4.958594 0.008,54.953087 0.008,54.953082 -2.33334,1.20008 -2.33333,1.20007 -1.66667,-0.5976 z m 33.53592,-2.23531 -0.82123,-2.14008 0.76748,-2 0.76747,-2 h 11.82993 11.82995 l 6.36296,-1.91497 6.36297,-1.91497 26.27176,-25.97887 26.27176,-25.978861 4.80628,-0.901663 4.80628,-0.901664 4.43758,0.939584 4.43756,0.939583 25.33333,25.046141 25.33333,25.04613 4.66667,2.35662 4.66667,2.3566 13.11233,0.63684 13.11232,0.63685 0.70351,1.83331 0.7035,1.8333 -1.76504,2.12675 -1.76504,2.12675 -12.71746,-0.55171 -12.71746,-0.55172 -6.60161,-2.96904 -6.6016,-2.96905 -25.50753,-25.28963 -25.50752,-25.28964 h -3.813 -3.81302 l -25.4112,25.1958 -25.41118,25.19579 -6,3.08352 -6,3.08352 -15.65476,0.52744 -15.65476,0.52744 z m -486.77324,-17.14008 -14.75648,-15 -3.13886,-6 -3.13887,-5.999997 -0.004,-10 -0.004,-10 2.44068,-4.666666 2.44068,-4.666667 16.17951,-16.333333 16.17951,-16.333333 h 6.95438 6.95438 l 7.06563,1.483848 7.06563,1.483847 21.33333,21.104893 21.33334,21.104891 3.83119,1.440812 3.83119,1.440812 4.83548,-0.890642 4.83547,-0.890644 21.33333,-20.969864 21.33334,-20.969865 2.91234,-1.502377 2.91235,-1.502378 h 11.16141 11.16142 l 14.87777,15.079482 14.87777,15.079481 2.68586,5.920518 2.68585,5.920519 0.0163,8.666666 0.0163,8.666667 -3.17769,6.66667 -3.17769,6.66666 -15.34758,15.18359 -15.34758,15.18357 -9.79503,-0.63525 -9.79507,-0.63524 -4.66666,-2.39163 -4.66667,-2.39161 -20.7982,-20.49004 -20.7982,-20.490053 h -5.62279 -5.62279 l -2.91234,1.490473 -2.91235,1.490475 -20.66666,20.376355 -20.66667,20.37635 -5.33333,1.45907 -5.33334,1.45908 -9.40709,0.008 -9.40709,0.007 z M 249.26619,71.712284 246.59953,70.249538 221.91867,45.818143 197.23783,21.38675 l -4.943,-2.065314 -4.94298,-2.065315 -13.04283,-0.02041 -13.04283,-0.02041 -1.79785,-1.139352 -1.79787,-1.139353 0.48747,-2.506896 0.48745,-2.5068973 h 16.64374 16.64373 l 5.33333,2.5783663 5.33334,2.578367 25.40554,25.0883 25.40555,25.088291 h 3.82728 3.82728 l 24.78128,-24.476706 24.78127,-24.476705 5.98589,-3.130273 5.98591,-3.130274 14.98678,-0.5365023 14.98679,-0.5365026 0.82905,2.1604609 0.82904,2.160463 -1.64576,1.98302 -1.64576,1.98302 -11.5034,0.02928 -11.50341,0.02928 -5.95559,2.701548 -5.95558,2.701547 -25.48688,25.269175 -25.48688,25.269169 -6.55754,-0.04055 -6.55753,-0.04055 -2.66667,-1.462747 z m -504.01667,-19.824768 -19.98333,-20.03527 -6.59512,-3.298063 -6.59513,-3.298062 h -7.39098 -7.39098 l 23.98611,-24.0931065 23.9861,-24.0931075 5.23681,-2.721469 5.23681,-2.72147 7.57865,-0.687208 7.57865,-0.687207 7.18454,2.359481 7.18454,2.359481 25.08611,24.80896884 25.08611,24.80897016 -7.08611,0.790868 -7.08611,0.790868 -4.66666,2.355477 -4.66667,2.355476 -20.76076,20.520321 -20.76075,20.520323 h -2.58925 -2.58925 z m 374.01225,-59.4312334 -6.66224,-6.2317396 v -1.992983 -1.992983 l 5.82456,-5.824561 5.82456,-5.824561 h 2.1716 2.1716 l 5.28024,4.770381 5.28024,4.770381 0.85778,2.702648 0.85779,2.702647 -5.13419,5.299188 -5.13418,5.2991866 -2.33776,1.2770679 -2.33778,1.277068 z"
         id="path615" />
      <path
         style="fill:#9b9a9a;stroke-width:1.33333"
         d="m -63.250167,206.10389 -1.604466,-1.93326 0.393746,-77.86227 0.393747,-77.862262 5.029787,-10.174563 5.0298,-10.174562 6.303533,-5.606996 6.303547,-5.606997 7.333333,-3.480096 7.333333,-3.4800963 H 7.93286 42.599527 l 8.666666,4.1260653 8.666667,4.126067 5.787813,5.818606 5.787814,5.818607 4.212186,8.055328 4.212187,8.055326 v 29.333333 29.33333 l -3.573413,7.6241 -3.5734,7.62408 -6.286587,6.72088 -6.2866,6.72086 -8.77416,4.32171 -8.774173,4.32171 H 4.6320333 -33.400473 v -3.33334 -3.33333 l 36.6666663,-0.66667 36.6666667,-0.66666 7.333333,-3.48374 7.333334,-3.48373 5.132813,-5.18293 5.132813,-5.18294 3.533854,-6.66666 3.533853,-6.66667 V 75.922787 48.589454 L 68.669393,41.957561 65.405913,35.325667 59.967953,29.887699 54.52998,24.449732 47.898087,21.18626 41.266193,17.922788 10.546447,17.503312 -20.1733,17.083837 l -7.386053,2.763475 -7.38604,2.763474 -5.667174,4.850888 -5.667173,4.850888 -3.00396,4.805112 -3.00396,4.805113 -1.870467,4.666667 -1.87048,4.666666 -0.685933,77.98239 -0.685933,77.98238 -2.122614,0.40814 -2.122613,0.40813 z m -180.158943,-4.76022 -3.34196,-1.01659 -3.99137,-2.112 -3.99137,-2.11201 -23.13022,-23.23443 -23.13023,-23.23443 7.02068,-0.93132 7.02068,-0.93132 4.73764,-1.97952 4.73764,-1.9795 20.75751,-20.61155 20.75752,-20.61155 h 3.16545 3.16546 l 20.78227,20.4291 20.78227,20.42908 6,2.15232 6,2.15233 5.30268,0.86912 5.30268,0.86912 -24.63601,24.32533 -24.63602,24.32534 -6.57085,2.22413 -6.57085,2.22413 -6.09582,-0.1146 -6.09581,-0.11461 z m 368.34197,-58.37883 -1.66667,-0.59761 V 87.102184 31.837138 l -1.83842,-4.399975 -1.83843,-4.399975 -3.67472,-2.890534 -3.67472,-2.890533 h -12.323587 -12.3236 l -1.64576,-1.98302 -1.64576,-1.98302 0.773987,-2.01698 0.773987,-2.0169799 h 13.418 13.418013 l 4.35276,1.8187009 4.35276,1.8187 3.55317,4.222706 3.55318,4.222705 1.37713,4.958594 1.37715,4.958594 0.008,54.953087 0.008,54.953082 -2.33334,1.20008 -2.33333,1.20007 -1.66667,-0.5976 z m 33.53592,-2.23531 -0.82123,-2.14008 0.76748,-2 0.76747,-2 h 11.82993 11.82995 l 6.36296,-1.91497 6.36297,-1.91497 26.27176,-25.97887 26.27176,-25.978861 4.80628,-0.901663 4.80628,-0.901664 4.43758,0.939584 4.43756,0.939583 25.33333,25.046141 25.33333,25.04613 4.66667,2.35662 4.66667,2.3566 13.11233,0.63684 13.11232,0.63685 0.70351,1.83331 0.7035,1.8333 -1.76504,2.12675 -1.76504,2.12675 -12.71746,-0.55171 -12.71746,-0.55172 -6.60161,-2.96904 -6.6016,-2.96905 -25.50753,-25.28963 -25.50752,-25.28964 h -3.813 -3.81302 l -25.4112,25.1958 -25.41118,25.19579 -6,3.08352 -6,3.08352 -15.65476,0.52744 -15.65476,0.52744 z m -488.132,-19.80674 -16.12613,-16.33334 -2.1389,-7.241997 -2.13889,-7.242002 v -3.515998 -3.515997 l 2.12529,-7.156614 2.12528,-7.156615 16.09816,-16.41872 16.09816,-16.41872 h 11.84277 11.84277 l 4.26712,2.146344 4.26712,2.146346 20.66666,20.361127 20.66667,20.361128 3.11592,0.952503 3.11592,0.952501 4.88408,-0.905232 4.88408,-0.905233 21.33333,-21.143481 21.33334,-21.143483 3.75346,-1.41126 3.75347,-1.41126 h 10.4006 10.4006 l 14.54039,15.009591 14.54038,15.00959 2.63888,5.323743 2.63888,5.323742 -0.0317,10.666667 -0.0317,10.666667 -2.48774,4.627103 -2.48773,4.62711 -14.69603,15.03956 -14.69609,15.03956 h -11.20547 -11.20545 l -2.91235,-1.49048 -2.91234,-1.49047 -20.66667,-20.3391 -20.66667,-20.339109 -4.68147,-1.502032 -4.68147,-1.502033 -4.58193,1.314081 -4.58194,1.314082 -20.73659,20.590581 -20.7366,20.59057 -3.75346,1.42695 -3.75347,1.42696 h -11.64818 -11.64817 z M 249.26619,71.712284 246.59953,70.249538 221.91867,45.818143 197.23783,21.38675 l -4.943,-2.065314 -4.94298,-2.065315 -13.04283,-0.02041 -13.04283,-0.02041 -1.79785,-1.139352 -1.79787,-1.139353 0.48747,-2.506896 0.48745,-2.5068973 h 16.64374 16.64373 l 5.33333,2.5783663 5.33334,2.578367 25.40554,25.0883 25.40555,25.088291 h 3.82728 3.82728 l 24.78128,-24.476706 24.78127,-24.476705 5.98589,-3.130273 5.98591,-3.130274 14.98678,-0.5365023 14.98679,-0.5365026 0.82905,2.1604609 0.82904,2.160463 -1.64576,1.98302 -1.64576,1.98302 -11.5034,0.02928 -11.50341,0.02928 -5.95559,2.701548 -5.95558,2.701547 -25.48688,25.269175 -25.48688,25.269169 -6.55754,-0.04055 -6.55753,-0.04055 -2.66667,-1.462747 z m -504.57258,-20.30982 -20.76075,-20.520321 -4.66667,-2.379118 -4.66666,-2.379119 -8.42091,-0.767225 -8.42091,-0.767227 25.10036,-24.86956616 25.10036,-24.86956684 7.87656,-2.289781 7.87657,-2.28978 6.35279,0.752394 6.3528,0.752394 5.75786,2.919269 5.75785,2.91927 23.75661,23.4876835 23.7566,23.4876835 -7.08993,0.843928 -7.08995,0.843928 -3.94648,1.562789 -3.94648,1.562788 -21.51464,21.259951 -21.51463,21.259949 h -2.4448 -2.44479 z m 373.40906,-60.116552 -5.50314,-5.970209 v -1.079914 -1.079913 l 6.37913,-6.283211 6.37913,-6.28321 h 1.23707 1.23707 l 5.71713,5.610944 5.71713,5.610944 v 2.785125 2.785125 l -5.05621,4.9372643 -5.05623,4.9372639 h -2.77396 -2.77397 z"
         id="path613" />
      <path
         style="fill:#43b7ae;stroke-width:1.33333"
         d="m -243.40911,201.34367 -3.34196,-1.01659 -3.99137,-2.112 -3.99137,-2.11201 -23.13022,-23.23443 -23.13023,-23.23443 7.02068,-0.93132 7.02068,-0.93132 4.73764,-1.97952 4.73764,-1.9795 20.75751,-20.61155 20.75752,-20.61155 h 3.16545 3.16546 l 20.78227,20.4291 20.78227,20.42908 6,2.15232 6,2.15233 5.30268,0.86912 5.30268,0.86912 -24.63601,24.32533 -24.63602,24.32534 -6.57085,2.22413 -6.57085,2.22413 -6.09582,-0.1146 -6.09581,-0.11461 z m -86.25411,-80.42088 -16.12613,-16.33334 -2.1389,-7.241997 -2.13889,-7.242002 v -3.515998 -3.515997 l 2.12529,-7.156614 2.12528,-7.156615 16.09816,-16.41872 16.09816,-16.41872 h 11.84277 11.84277 l 4.26712,2.146344 4.26712,2.146346 20.66666,20.361127 20.66667,20.361128 3.11592,0.952503 3.11592,0.952501 4.88408,-0.905232 4.88408,-0.905233 21.33333,-21.143481 21.33334,-21.143483 3.75346,-1.41126 3.75347,-1.41126 h 10.4006 10.4006 l 14.54039,15.009591 14.54038,15.00959 2.63888,5.323743 2.63888,5.323742 -0.0317,10.666667 -0.0317,10.666667 -2.48774,4.627103 -2.48773,4.62711 -14.69603,15.03956 -14.69609,15.03956 h -11.20547 -11.20545 l -2.91235,-1.49048 -2.91234,-1.49047 -20.66667,-20.3391 -20.66667,-20.339109 -4.68147,-1.502032 -4.68147,-1.502033 -4.58193,1.314081 -4.58194,1.314082 -20.73659,20.590581 -20.7366,20.59057 -3.75346,1.42695 -3.75347,1.42696 h -11.64818 -11.64817 z m 74.35683,-69.520326 -20.76075,-20.520321 -4.66667,-2.379118 -4.66666,-2.379119 -8.42091,-0.767225 -8.42091,-0.767227 25.10036,-24.86956616 25.10036,-24.86956684 7.87656,-2.289781 7.87657,-2.28978 6.35279,0.752394 6.3528,0.752394 5.75786,2.919269 5.75785,2.91927 23.75661,23.4876835 23.7566,23.4876835 -7.08993,0.843928 -7.08995,0.843928 -3.94648,1.562789 -3.94648,1.562788 -21.51464,21.259951 -21.51463,21.259949 h -2.4448 -2.44479 z m 373.40906,-60.116552 -5.50314,-5.970209 v -1.079914 -1.079913 l 6.37913,-6.283211 6.37913,-6.28321 h 1.23707 1.23707 l 5.71713,5.610944 5.71713,5.610944 v 2.785125 2.785125 l -5.05621,4.9372643 -5.05623,4.9372639 h -2.77396 -2.77397 z"
         id="path611" />
      <path
         style="fill:#36b3a9;stroke-width:1.33333"
         d="m -246.06714,200.37049 -6,-2.1712 -24.38527,-24.11169 -24.38527,-24.11171 8.61255,-1.58954 8.61255,-1.58955 3.10605,-1.59415 3.10606,-1.59414 20.76075,-20.50954 20.76075,-20.50952 h 3.25592 3.25592 l 19.81739,19.8505 19.8174,19.85049 6.16593,2.73505 6.16594,2.73507 5.21788,0.84907 5.21788,0.84908 -23.21788,23.3253 -23.21788,23.3253 -5.29412,2.75056 -5.29412,2.75054 -8.03921,0.46564 -8.03922,0.46566 z m -83.56473,-79.4477 -16.01163,-16.33334 -1.82604,-5.33333 -1.82605,-5.333333 0.0596,-8 0.0596,-8 3.05777,-6 3.05777,-6 14.75648,-15 14.75647,-15 h 10.98696 10.98696 l 3.75346,1.422975 3.75347,1.422973 21.38323,21.130103 21.38324,21.130103 4.94133,0.927 4.94134,0.927 3.67543,-0.917022 3.67543,-0.917023 20.66667,-20.416709 20.66666,-20.41671 4.26712,-2.146346 4.26712,-2.146344 h 9.75372 9.75372 l 15.51174,15.666667 15.51172,15.666666 2.28013,4.549534 2.28015,4.549532 0.70504,7.775249 0.70502,7.775249 -2.37794,6.341889 -2.37795,6.341877 -16.07148,16.33334 -16.07149,16.33333 h -9.64818 -9.64817 l -3.69995,-1.40672 -3.69994,-1.40672 -21.38686,-21.07812 -21.38685,-21.078124 -4.83547,-0.878044 -4.83548,-0.878043 -3.83119,1.441868 -3.83119,1.441868 -20,19.757405 -20,19.75742 -4.26712,2.1636 -4.26712,2.16361 h -11.84277 -11.84277 z m 73.59603,-70.302411 -21.55761,-21.302408 -4.86069,-2.030925 -4.86068,-2.030925 h -7.69521 -7.6952 l 23.31904,-23.4288292 23.31905,-23.4288278 6.34157,-3.264474 6.34158,-3.264475 5.78926,-0.793507 5.78927,-0.793508 7.85637,2.283911 7.85639,2.28391 25.09888,24.86956684 25.09889,24.86956616 -7.0861,0.790868 -7.08611,0.790868 -4.66667,2.385752 -4.66666,2.385751 -20.7982,20.490047 -20.7982,20.490047 h -1.74069 -1.74068 z m 374.13851,-59.334467 -5.50314,-5.970209 v -0.753579 -0.753579 l 6.18245,-6.609545 6.18245,-6.609545 h 1.43375 1.43375 l 5.71713,5.610944 5.71713,5.610944 v 2.900573 2.900572 l -5.33717,4.8218173 -5.33717,4.8218159 h -2.49302 -2.49301 z"
         id="path609" />
    </g>
  </g>
</svg>
